<?xml version="1.0" encoding="utf-8"?>
<?xml-stylesheet type="text/xsl" href="rss1.xsl"?>
<rss version="2.0" xmlns:atom="http://www.w3.org/2005/Atom" xmlns:content="http://purl.org/rss/1.0/modules/content/" xmlns:dc="http://purl.org/dc/elements/1.1/" xmlns:media="http://search.yahoo.com/mrss/">
<channel>
 <title>Getty</title>
 <link>http://www.gettyimg.com/</link>
 <atom:link href="http://www.gettyimg.com/" rel="self" type="application/rss+xml" />

 
                <item>
                <title><![CDATA[【Singles (lossy)】Dolby Atmos - Beyoncé - CUFF IT (KAYTRANADA Remix) [Mixed] [E-AC3-JOC | 16bits/48kHz | 5.1 | 768kbits]]]></title>
                <link><![CDATA[https://sharemania.us/threads/beyonc%C3%A9-cuff-it-kaytranada-remix-mixed-e-ac3-joc-16bits-48khz-5-1-768kbits.235756/]]></link>
                <description><![CDATA[<article>
<blockquote class="messageText SelectQuoteContainer ugc baseHtml">
<img src="https://is1-ssl.mzstatic.com/image/thumb/Music116/v4/ec/2f/7c/ec2f7c08-3e2a-b954-c86c-e14657b06a0c/dj.vfdccpde.png/1200x1200bf-60.jpg" class="bbCodeImage LbImage" alt="[​IMG]" data-url="https://is1-ssl.mzstatic.com/image/thumb/Music116/v4/ec/2f/7c/ec2f7c08-3e2a-b954-c86c-e14657b06a0c/dj.vfdccpde.png/1200x1200bf-60.jpg" style=""> <br>
Album: Apple Music Live: NYE 2024 (DJ Mix)<br>
Artist: Beyoncé &amp; KAYTRANADA<br>
Genre: Dance<br>
Release date: 31/12/2023<br>
Format: .m4a E-AC3-JOC (Dolby Digital Plus with Dolby Atmos) (Apple Core Media Audio)<br>
<div class="ToggleTriggerAnchor bbCodeSpoilerContainer">
<button type="button" class="button bbCodeSpoilerButton ToggleTrigger Tooltip JsOnly" data-target="> .SpoilerTarget"><span>Spoiler: <span class="SpoilerTitle">MediaInfo</span></span></button>
<div class="SpoilerTarget bbCodeSpoilerText"><a href="https://imgbox.com/O2qTVdMz" target="_blank" class="externalLink" rel="nofollow"><img src="https://thumbs2.imgbox.com/98/a2/O2qTVdMz_t.png" class="bbCodeImage LbImage" alt="[​IMG]" data-url="https://thumbs2.imgbox.com/98/a2/O2qTVdMz_t.png"></a></div>
</div><b>
<div class="bbCodeBlock bbCodeVfcHH HiddenContent">
<div class="attribution type">Hidden Content:</div>
<blockquote>You must reply before you can see the hidden data contained here.</blockquote>
</div></b>
<div class="messageTextEndMarker">&nbsp;</div>
</blockquote>
</article>]]></description>
                <author><![CDATA[letlotlop]]></author>
                </item>

                
                <item>
                <title><![CDATA[【Cinema Center】SERIES - Mr.Bean.S01.576p.AMZN.WEB-DL.DDP2.0.H.264-Samuel]]></title>
                <link><![CDATA[https://sharemania.us/threads/mr-bean-s01-576p-amzn-web-dl-ddp2-0-h-264-samuel.235755/]]></link>
                <description><![CDATA[<article>
<blockquote class="messageText SelectQuoteContainer ugc baseHtml">
<div style="text-align: center"><b><span style="font-size: 26px">Mr. Bean</span></b><br>
<b><span style="font-size: 22px">Season 1</span></b><br>
<img src="https://i.imgur.com/wDQcPpl.jpg" class="bbCodeImage LbImage" alt="[​IMG]" data-url="https://i.imgur.com/wDQcPpl.jpg" style=""><br>
<b><a href="https://i.imgur.com/EYRzkVK.jpg" target="_blank" class="externalLink" rel="nofollow">Alternate Artwork 1</a></b> | <b><a href="https://i.imgur.com/4aftE1I.png" target="_blank" class="externalLink" rel="nofollow">Alternate Artwork 2</a></b> | <b><a href="https://i.imgur.com/InMjA6D.jpg" target="_blank" class="externalLink" rel="nofollow">Alternate Artwork 3</a></b> | <b><a href="https://i.imgur.com/InMjA6D.jpg" target="_blank" class="externalLink" rel="nofollow">Alternate Artwork 4</a></b> | <b><a href="https://i.imgur.com/DW1KlGo.jpg" target="_blank" class="externalLink" rel="nofollow">Alternate Artwork 5</a></b> | <b><a href="https://i.imgur.com/7itQY1p.jpg" target="_blank" class="externalLink" rel="nofollow">Alternate Artwork 6</a></b> | <b><a href="https://i.imgur.com/Pt0PYEj.jpg" target="_blank" class="externalLink" rel="nofollow">Alternate Artwork 7</a></b><br>
<br>
1992 • 14 episodes <img src="https://i.imgur.com/BgPoepX.png" class="bbCodeImage LbImage" alt="[​IMG]" data-url="https://i.imgur.com/BgPoepX.png" style=""> <img src="https://i.imgur.com/dq6yxFh.png" class="bbCodeImage LbImage" alt="[​IMG]" data-url="https://i.imgur.com/dq6yxFh.png" style=""> <img src="https://i.imgur.com/zjBlkb0.png" class="bbCodeImage LbImage" alt="[​IMG]" data-url="https://i.imgur.com/zjBlkb0.png" style=""><br>
<br>
<div class="bbCodeBlock bbCodeQuote">
<aside>
<blockquote class="quoteContainer"><div class="quote"><b><span style="font-size: 15px"><span style="font-family: 'Arial'">Description</span></span></b><br>
Life is a difficult challenge for Mr Bean, who despite being a grown adult, has trouble completing even the simplest of tasks. Thankfully, his perseverance is usually rewarded, and he finds an ingenious way around the problem. British sitcom created by Rowan Atkinson and Richard Curtis, and starring Atkinson as the title character.</div><div class="quoteExpand">Click to expand...</div></blockquote>
</aside>
</div>
<div class="bbCodeBlock bbCodeQuote">
<aside>
<blockquote class="quoteContainer"><div class="quote"><span style="font-family: 'Arial'"><span style="font-size: 15px"><b>Details</b></span></span><br>
<b>Genres:</b> Kids • Comedy</div><div class="quoteExpand">Click to expand...</div></blockquote>
</aside>
</div>
<div class="bbCodeBlock bbCodeQuote">
<aside>
<blockquote class="quoteContainer"><div class="quote"><b><span style="font-size: 15px"><span style="font-family: 'Arial'">More Details</span></span></b><br>
<b>Audio languages:</b> English<br>
<b>Subtitles:</b> English [CC]<br>
<b>Directors:</b> John Birkin, Paul Weiland, John Howard-Davies<br>
<b>Producers:</b> John Howard-Davies, Sue Vertue, Peter Bennett-Jones<br>
<b>Starring:</b> Rowan Atkinson, Robin Driscoll, Matilda Ziegler<br>
<b>Studio:</b> Tiger Aspect Productions</div><div class="quoteExpand">Click to expand...</div></blockquote>
</aside>
</div>
<div class="bbCodeBlock bbCodeQuote">
<aside>
<blockquote class="quoteContainer"><div class="quote"><b><span style="font-size: 15px"><span style="font-family: 'Arial'">Source</span></span></b><br>
<img src="https://i.imgur.com/UquWuUD.png" class="bbCodeImage LbImage" alt="[​IMG]" data-url="https://i.imgur.com/UquWuUD.png" style=""></div><div class="quoteExpand">Click to expand...</div></blockquote>
</aside>
</div>
<div class="bbCodeBlock bbCodeQuote">
<aside>
<blockquote class="quoteContainer"><div class="quote"><b><span style="font-size: 15px">Release Name</span></b><br>
Mr.Bean.S01.576p.AMZN.WEB-DL.DDP2.0.H.264-Samuel</div><div class="quoteExpand">Click to expand...</div></blockquote>
</aside>
</div>
<div class="ToggleTriggerAnchor bbCodeSpoilerContainer">
<button type="button" class="button bbCodeSpoilerButton ToggleTrigger Tooltip JsOnly" data-target="> .SpoilerTarget"><span>Spoiler: <span class="SpoilerTitle">Media Information</span></span></button>
<div class="SpoilerTarget bbCodeSpoilerText"><b><span style="text-decoration: underline">Episode 1: Mr. Bean</span></b><br>
General<br>
Complete name : Mr.Bean.S01E01.Mr.Bean.576p.AMZN.WEB-DL.DDP2.0.H.264-Samuel.mkv<br>
Format : Matroska<br>
Format version : Version 4<br>
File size : 356 MiB<br>
Duration : 25 min 11 s<br>
Overall bit rate : 1 975 kb/s<br>
Frame rate : 25.000 FPS<br>
Encoded date : 2024-01-13 10:07:43 UTC<br>
Writing application : mkvmerge v72.0.0 ('Minuano (Six-eight)') 64-bit<br>
Writing library : libebml v1.4.4 + libmatroska v1.7.1<br>
<br>
Video<br>
ID : 1<br>
Format : AVC<br>
Format/Info : Advanced Video Codec<br>
Format profile : Main@L3.1<br>
Format settings : CABAC / 5 Ref Frames<br>
Format settings, CABAC : Yes<br>
Format settings, Reference frames : 5 frames<br>
Codec ID : V_MPEG4/ISO/AVC<br>
Duration : 25 min 11 s<br>
Bit rate : 1 749 kb/s<br>
Width : 720 pixels<br>
Height : 576 pixels<br>
Display aspect ratio : 4:3<br>
Frame rate mode : Constant<br>
Frame rate : 25.000 FPS<br>
Standard : PAL<br>
Color space : YUV<br>
Chroma subsampling : 4:2:0<br>
Bit depth : 8 bits<br>
Scan type : Progressive<br>
Bits/(Pixel*Frame) : 0.169<br>
Stream size : 315 MiB (89%)<br>
Default : Yes<br>
Forced : No<br>
Color range : Limited<br>
Color primaries : BT.709<br>
Transfer characteristics : BT.709<br>
Matrix coefficients : BT.709<br>
<br>
Audio<br>
ID : 2<br>
Format : E-AC-3<br>
Format/Info : Enhanced AC-3<br>
Commercial name : Dolby Digital Plus<br>
Codec ID : A_EAC3<br>
Duration : 25 min 11 s<br>
Bit rate mode : Constant<br>
Bit rate : 224 kb/s<br>
Channel(s) : 2 channels<br>
Channel layout : L R<br>
Sampling rate : 48.0 kHz<br>
Frame rate : 31.250 FPS (1536 SPF)<br>
Compression mode : Lossy<br>
Stream size : 40.3 MiB (11%)<br>
Language : English<br>
Service kind : Complete Main<br>
Default : Yes<br>
Forced : No<br>
<br>
Text<br>
ID : 3<br>
Format : UTF-8<br>
Codec ID : S_TEXT/UTF8<br>
Codec ID/Info : UTF-8 Plain Text<br>
Duration : 24 min 5 s<br>
Bit rate : 10 b/s<br>
Frame rate : 0.061 FPS<br>
Count of elements : 88<br>
Stream size : 1.88 KiB (0%)<br>
Title : British (SDH)<br>
Language : English<br>
Default : No<br>
Forced : No<br>
<br>
Menu<br>
00:00:00.000 : en:Title Sequence<br>
00:00:35.000 : en:When you prepare so well for the examination<br>
00:07:05.000 : en:Innovative ideas of cheating<br>
00:09:42.000 : en:Time is running out<br>
00:10:40.000 : en<img src="styles/default/xenforo/smilies/grimace-48.png" class="mceSmilie" alt=":p" title="Stick Out Tongue    :p">erfect day to visit the beach<br>
00:14:39.000 : en:True devotion of Bean<br>
00:24:04.000 : en:End Credits<br>
<br>
<b><span style="text-decoration: underline">Episode 2: The Return of Mr. Bean</span></b><br>
General<br>
Complete name : Mr.Bean.S01E02.The.Return.of.Mr.Bean.576p.AMZN.WEB-DL.DDP2.0.H.264-Samuel.mkv<br>
Format : Matroska<br>
Format version : Version 4<br>
File size : 432 MiB<br>
Duration : 25 min 25 s<br>
Overall bit rate : 2 376 kb/s<br>
Frame rate : 25.000 FPS<br>
Encoded date : 2024-01-13 10:08:47 UTC<br>
Writing application : mkvmerge v72.0.0 ('Minuano (Six-eight)') 64-bit<br>
Writing library : libebml v1.4.4 + libmatroska v1.7.1<br>
<br>
Video<br>
ID : 1<br>
Format : AVC<br>
Format/Info : Advanced Video Codec<br>
Format profile : Main@L3.1<br>
Format settings : CABAC / 5 Ref Frames<br>
Format settings, CABAC : Yes<br>
Format settings, Reference frames : 5 frames<br>
Codec ID : V_MPEG4/ISO/AVC<br>
Duration : 25 min 25 s<br>
Bit rate : 2 151 kb/s<br>
Width : 720 pixels<br>
Height : 576 pixels<br>
Display aspect ratio : 4:3<br>
Frame rate mode : Constant<br>
Frame rate : 25.000 FPS<br>
Standard : PAL<br>
Color space : YUV<br>
Chroma subsampling : 4:2:0<br>
Bit depth : 8 bits<br>
Scan type : Progressive<br>
Bits/(Pixel*Frame) : 0.207<br>
Stream size : 391 MiB (90%)<br>
Default : Yes<br>
Forced : No<br>
Color range : Limited<br>
Color primaries : BT.709<br>
Transfer characteristics : BT.709<br>
Matrix coefficients : BT.709<br>
<br>
Audio<br>
ID : 2<br>
Format : E-AC-3<br>
Format/Info : Enhanced AC-3<br>
Commercial name : Dolby Digital Plus<br>
Codec ID : A_EAC3<br>
Duration : 25 min 25 s<br>
Bit rate mode : Constant<br>
Bit rate : 224 kb/s<br>
Channel(s) : 2 channels<br>
Channel layout : L R<br>
Sampling rate : 48.0 kHz<br>
Frame rate : 31.250 FPS (1536 SPF)<br>
Compression mode : Lossy<br>
Stream size : 40.7 MiB (9%)<br>
Language : English<br>
Service kind : Complete Main<br>
Default : Yes<br>
Forced : No<br>
<br>
Text<br>
ID : 3<br>
Format : UTF-8<br>
Codec ID : S_TEXT/UTF8<br>
Codec ID/Info : UTF-8 Plain Text<br>
Duration : 24 min 22 s<br>
Bit rate : 19 b/s<br>
Frame rate : 0.098 FPS<br>
Count of elements : 144<br>
Stream size : 3.43 KiB (0%)<br>
Title : British (SDH)<br>
Language : English<br>
Default : No<br>
Forced : No<br>
<br>
Menu<br>
00:00:00.000 : en:Title Sequence<br>
00:00:32.000 : en:Bean goes shopping<br>
00:07:48.000 : en:A clear misunderstanding<br>
00:08:35.000 : en:Bean treats himself to dinner<br>
00:17:30.000 : en:Warm welcome of the royalty<br>
00:24:04.000 : en:End Credits<br>
<br>
<b><span style="text-decoration: underline">Episode 3: The Curse of Mr. Bean</span></b><br>
General<br>
Complete name : Mr.Bean.S01E03.The.Curse.of.Mr.Bean.576p.AMZN.WEB-DL.DDP2.0.H.264-Samuel.mkv<br>
Format : Matroska<br>
Format version : Version 4<br>
File size : 454 MiB<br>
Duration : 24 min 46 s<br>
Overall bit rate : 2 565 kb/s<br>
Frame rate : 25.000 FPS<br>
Encoded date : 2024-01-13 10:09:53 UTC<br>
Writing application : mkvmerge v72.0.0 ('Minuano (Six-eight)') 64-bit<br>
Writing library : libebml v1.4.4 + libmatroska v1.7.1<br>
<br>
Video<br>
ID : 1<br>
Format : AVC<br>
Format/Info : Advanced Video Codec<br>
Format profile : Main@L3.1<br>
Format settings : CABAC / 5 Ref Frames<br>
Format settings, CABAC : Yes<br>
Format settings, Reference frames : 5 frames<br>
Codec ID : V_MPEG4/ISO/AVC<br>
Duration : 24 min 46 s<br>
Bit rate : 2 339 kb/s<br>
Width : 720 pixels<br>
Height : 576 pixels<br>
Display aspect ratio : 4:3<br>
Frame rate mode : Constant<br>
Frame rate : 25.000 FPS<br>
Standard : PAL<br>
Color space : YUV<br>
Chroma subsampling : 4:2:0<br>
Bit depth : 8 bits<br>
Scan type : Progressive<br>
Bits/(Pixel*Frame) : 0.226<br>
Stream size : 414 MiB (91%)<br>
Default : Yes<br>
Forced : No<br>
Color range : Limited<br>
Color primaries : BT.709<br>
Transfer characteristics : BT.709<br>
Matrix coefficients : BT.709<br>
<br>
Audio<br>
ID : 2<br>
Format : E-AC-3<br>
Format/Info : Enhanced AC-3<br>
Commercial name : Dolby Digital Plus<br>
Codec ID : A_EAC3<br>
Duration : 24 min 46 s<br>
Bit rate mode : Constant<br>
Bit rate : 224 kb/s<br>
Channel(s) : 2 channels<br>
Channel layout : L R<br>
Sampling rate : 48.0 kHz<br>
Frame rate : 31.250 FPS (1536 SPF)<br>
Compression mode : Lossy<br>
Stream size : 39.7 MiB (9%)<br>
Language : English<br>
Service kind : Complete Main<br>
Default : Yes<br>
Forced : No<br>
<br>
Text<br>
ID : 3<br>
Format : UTF-8<br>
Codec ID : S_TEXT/UTF8<br>
Codec ID/Info : UTF-8 Plain Text<br>
Duration : 23 min 31 s<br>
Bit rate : 6 b/s<br>
Frame rate : 0.046 FPS<br>
Count of elements : 65<br>
Stream size : 1.07 KiB (0%)<br>
Title : British (SDH)<br>
Language : English<br>
Default : No<br>
Forced : No<br>
<br>
Menu<br>
00:00:00.000 : en:Title Sequence<br>
00:00:31.000 : en:Bean goes swimming<br>
00:07:42.000 : en<img src="styles/default/xenforo/smilies/grimace-48.png" class="mceSmilie" alt=":p" title="Stick Out Tongue    :p">arking issues<br>
00:11:26.000 : en:Bean and his fresh sandwich<br>
00:18:20.000 : en:There is nothing like a good horror movie<br>
00:23:29.000 : en:End Credits<br>
<br>
<b><span style="text-decoration: underline">Episode 4: Mr. Bean Goes to Town</span></b><br>
General<br>
Complete name : Mr.Bean.S01E04.Mr.Bean.Goes.to.Town.576p.AMZN.WEB-DL.DDP2.0.H.264-Samuel.mkv<br>
Format : Matroska<br>
Format version : Version 4<br>
File size : 443 MiB<br>
Duration : 24 min 12 s<br>
Overall bit rate : 2 559 kb/s<br>
Frame rate : 25.000 FPS<br>
Encoded date : 2024-01-13 10:10:59 UTC<br>
Writing application : mkvmerge v72.0.0 ('Minuano (Six-eight)') 64-bit<br>
Writing library : libebml v1.4.4 + libmatroska v1.7.1<br>
<br>
Video<br>
ID : 1<br>
Format : AVC<br>
Format/Info : Advanced Video Codec<br>
Format profile : Main@L3.1<br>
Format settings : CABAC / 5 Ref Frames<br>
Format settings, CABAC : Yes<br>
Format settings, Reference frames : 5 frames<br>
Codec ID : V_MPEG4/ISO/AVC<br>
Duration : 24 min 12 s<br>
Bit rate : 2 333 kb/s<br>
Width : 720 pixels<br>
Height : 576 pixels<br>
Display aspect ratio : 4:3<br>
Frame rate mode : Constant<br>
Frame rate : 25.000 FPS<br>
Standard : PAL<br>
Color space : YUV<br>
Chroma subsampling : 4:2:0<br>
Bit depth : 8 bits<br>
Scan type : Progressive<br>
Bits/(Pixel*Frame) : 0.225<br>
Stream size : 404 MiB (91%)<br>
Default : Yes<br>
Forced : No<br>
Color range : Limited<br>
Color primaries : BT.709<br>
Transfer characteristics : BT.709<br>
Matrix coefficients : BT.709<br>
<br>
Audio<br>
ID : 2<br>
Format : E-AC-3<br>
Format/Info : Enhanced AC-3<br>
Commercial name : Dolby Digital Plus<br>
Codec ID : A_EAC3<br>
Duration : 24 min 12 s<br>
Bit rate mode : Constant<br>
Bit rate : 224 kb/s<br>
Channel(s) : 2 channels<br>
Channel layout : L R<br>
Sampling rate : 48.0 kHz<br>
Frame rate : 31.250 FPS (1536 SPF)<br>
Compression mode : Lossy<br>
Stream size : 38.8 MiB (9%)<br>
Language : English<br>
Service kind : Complete Main<br>
Default : Yes<br>
Forced : No<br>
<br>
Text<br>
ID : 3<br>
Format : UTF-8<br>
Codec ID : S_TEXT/UTF8<br>
Codec ID/Info : UTF-8 Plain Text<br>
Duration : 24 min 10 s<br>
Bit rate : 30 b/s<br>
Frame rate : 0.189 FPS<br>
Count of elements : 274<br>
Stream size : 5.37 KiB (0%)<br>
Title : British (SDH)<br>
Language : English<br>
Default : No<br>
Forced : No<br>
<br>
Menu<br>
00:00:00.000 : en:Title Sequence<br>
00:00:35.000 : en:Bean gets a new TV<br>
00:09:24.000 : en:A photo in the right location<br>
00:11:48.000 : en:Bean identifies the culprit<br>
00:15:00.000 : en:Bean goes clubbing<br>
00:22:32.000 : en:Bad luck follows Bean<br>
00:23:02.000 : en:End Credits<br>
<br>
<b><span style="text-decoration: underline">Episode 5: The Trouble with Mr. Bean</span></b><br>
General<br>
Complete name : Mr.Bean.S01E05.The.Trouble.with.Mr.Bean.576p.AMZN.WEB-DL.DDP2.0.H.264-Samuel.mkv<br>
Format : Matroska<br>
Format version : Version 4<br>
File size : 463 MiB<br>
Duration : 24 min 43 s<br>
Overall bit rate : 2 622 kb/s<br>
Frame rate : 25.000 FPS<br>
Encoded date : 2024-01-13 10:12:06 UTC<br>
Writing application : mkvmerge v72.0.0 ('Minuano (Six-eight)') 64-bit<br>
Writing library : libebml v1.4.4 + libmatroska v1.7.1<br>
<br>
Video<br>
ID : 1<br>
Format : AVC<br>
Format/Info : Advanced Video Codec<br>
Format profile : Main@L3.1<br>
Format settings : CABAC / 5 Ref Frames<br>
Format settings, CABAC : Yes<br>
Format settings, Reference frames : 5 frames<br>
Codec ID : V_MPEG4/ISO/AVC<br>
Duration : 24 min 43 s<br>
Bit rate : 2 396 kb/s<br>
Width : 720 pixels<br>
Height : 576 pixels<br>
Display aspect ratio : 4:3<br>
Frame rate mode : Constant<br>
Frame rate : 25.000 FPS<br>
Standard : PAL<br>
Color space : YUV<br>
Chroma subsampling : 4:2:0<br>
Bit depth : 8 bits<br>
Scan type : Progressive<br>
Bits/(Pixel*Frame) : 0.231<br>
Stream size : 424 MiB (91%)<br>
Default : Yes<br>
Forced : No<br>
Color range : Limited<br>
Color primaries : BT.709<br>
Transfer characteristics : BT.709<br>
Matrix coefficients : BT.709<br>
<br>
Audio<br>
ID : 2<br>
Format : E-AC-3<br>
Format/Info : Enhanced AC-3<br>
Commercial name : Dolby Digital Plus<br>
Codec ID : A_EAC3<br>
Duration : 24 min 43 s<br>
Bit rate mode : Constant<br>
Bit rate : 224 kb/s<br>
Channel(s) : 2 channels<br>
Channel layout : L R<br>
Sampling rate : 48.0 kHz<br>
Frame rate : 31.250 FPS (1536 SPF)<br>
Compression mode : Lossy<br>
Stream size : 39.6 MiB (9%)<br>
Language : English<br>
Service kind : Complete Main<br>
Default : Yes<br>
Forced : No<br>
<br>
Text<br>
ID : 3<br>
Format : UTF-8<br>
Codec ID : S_TEXT/UTF8<br>
Codec ID/Info : UTF-8 Plain Text<br>
Duration : 24 min 19 s<br>
Bit rate : 5 b/s<br>
Frame rate : 0.045 FPS<br>
Count of elements : 66<br>
Stream size : 936 Bytes (0%)<br>
Title : British (SDH)<br>
Language : English<br>
Default : No<br>
Forced : No<br>
<br>
Menu<br>
00:00:00.000 : en:Title Sequence<br>
00:00:34.000 : en:It's too late<br>
00:04:06.000 : en:Innovative way to get ready<br>
00:08:12.000 : en:Meeting your dentist for a long overdue check<br>
00:15:58.000 : en:Motor boats and motorized wheelchair<br>
00:18:04.000 : en:Bean enjoys a picnic at park<br>
00:23:35.000 : en:End Credits<br>
<br>
<b><span style="text-decoration: underline">Episode 6: Mr. Bean Rides Again</span></b><br>
General<br>
Complete name : Mr.Bean.S01E06.Mr.Bean.Rides.Again.576p.AMZN.WEB-DL.DDP2.0.H.264-Samuel.mkv<br>
Format : Matroska<br>
Format version : Version 4<br>
File size : 441 MiB<br>
Duration : 23 min 54 s<br>
Overall bit rate : 2 579 kb/s<br>
Frame rate : 25.000 FPS<br>
Encoded date : 2024-01-13 10:13:12 UTC<br>
Writing application : mkvmerge v72.0.0 ('Minuano (Six-eight)') 64-bit<br>
Writing library : libebml v1.4.4 + libmatroska v1.7.1<br>
<br>
Video<br>
ID : 1<br>
Format : AVC<br>
Format/Info : Advanced Video Codec<br>
Format profile : Main@L3.1<br>
Format settings : CABAC / 5 Ref Frames<br>
Format settings, CABAC : Yes<br>
Format settings, Reference frames : 5 frames<br>
Codec ID : V_MPEG4/ISO/AVC<br>
Duration : 23 min 47 s<br>
Bit rate : 2 366 kb/s<br>
Width : 720 pixels<br>
Height : 576 pixels<br>
Display aspect ratio : 4:3<br>
Frame rate mode : Constant<br>
Frame rate : 25.000 FPS<br>
Standard : PAL<br>
Color space : YUV<br>
Chroma subsampling : 4:2:0<br>
Bit depth : 8 bits<br>
Scan type : Progressive<br>
Bits/(Pixel*Frame) : 0.228<br>
Stream size : 402 MiB (91%)<br>
Default : Yes<br>
Forced : No<br>
Color range : Limited<br>
Color primaries : BT.709<br>
Transfer characteristics : BT.709<br>
Matrix coefficients : BT.709<br>
<br>
Audio<br>
ID : 2<br>
Format : E-AC-3<br>
Format/Info : Enhanced AC-3<br>
Commercial name : Dolby Digital Plus<br>
Codec ID : A_EAC3<br>
Duration : 23 min 47 s<br>
Bit rate mode : Constant<br>
Bit rate : 224 kb/s<br>
Channel(s) : 2 channels<br>
Channel layout : L R<br>
Sampling rate : 48.0 kHz<br>
Frame rate : 31.250 FPS (1536 SPF)<br>
Compression mode : Lossy<br>
Stream size : 38.1 MiB (9%)<br>
Language : English<br>
Service kind : Complete Main<br>
Default : Yes<br>
Forced : No<br>
<br>
Text<br>
ID : 3<br>
Format : UTF-8<br>
Codec ID : S_TEXT/UTF8<br>
Codec ID/Info : UTF-8 Plain Text<br>
Duration : 23 min 49 s<br>
Bit rate : 13 b/s<br>
Frame rate : 0.089 FPS<br>
Count of elements : 127<br>
Stream size : 2.33 KiB (0%)<br>
Title : British (SDH)<br>
Language : English<br>
Default : No<br>
Forced : No<br>
<br>
Menu<br>
00:00:00.000 : en:Title Sequence<br>
00:00:34.000 : en:Bean provides emergency services<br>
00:05:37.000 : en:Bean drops off a letter<br>
00:08:55.000 : en:Stuck in the wrong place<br>
00:14:26.000 : en:Train travel with jolly good fellow<br>
00:18:52.000 : en:Travel really takes a toll on your health<br>
00:22:34.000 : en:End Credits<br>
<br>
<b><span style="text-decoration: underline">Episode 7: Merry Christmas, Mr. Bean</span></b><br>
General<br>
Complete name : Mr.Bean.S01E07.Merry.Christmas.Mr.Bean.576p.AMZN.WEB-DL.DDP2.0.H.264-Samuel.mkv<br>
Format : Matroska<br>
Format version : Version 4<br>
File size : 426 MiB<br>
Duration : 25 min 36 s<br>
Overall bit rate : 2 327 kb/s<br>
Frame rate : 25.000 FPS<br>
Encoded date : 2024-01-13 10:14:17 UTC<br>
Writing application : mkvmerge v72.0.0 ('Minuano (Six-eight)') 64-bit<br>
Writing library : libebml v1.4.4 + libmatroska v1.7.1<br>
<br>
Video<br>
ID : 1<br>
Format : AVC<br>
Format/Info : Advanced Video Codec<br>
Format profile : Main@L3.1<br>
Format settings : CABAC / 5 Ref Frames<br>
Format settings, CABAC : Yes<br>
Format settings, Reference frames : 5 frames<br>
Codec ID : V_MPEG4/ISO/AVC<br>
Duration : 25 min 36 s<br>
Bit rate : 2 101 kb/s<br>
Width : 720 pixels<br>
Height : 576 pixels<br>
Display aspect ratio : 4:3<br>
Frame rate mode : Constant<br>
Frame rate : 25.000 FPS<br>
Standard : PAL<br>
Color space : YUV<br>
Chroma subsampling : 4:2:0<br>
Bit depth : 8 bits<br>
Scan type : Progressive<br>
Bits/(Pixel*Frame) : 0.203<br>
Stream size : 385 MiB (90%)<br>
Default : Yes<br>
Forced : No<br>
Color range : Limited<br>
Color primaries : BT.709<br>
Transfer characteristics : BT.709<br>
Matrix coefficients : BT.709<br>
<br>
Audio<br>
ID : 2<br>
Format : E-AC-3<br>
Format/Info : Enhanced AC-3<br>
Commercial name : Dolby Digital Plus<br>
Codec ID : A_EAC3<br>
Duration : 25 min 36 s<br>
Bit rate mode : Constant<br>
Bit rate : 224 kb/s<br>
Channel(s) : 2 channels<br>
Channel layout : L R<br>
Sampling rate : 48.0 kHz<br>
Frame rate : 31.250 FPS (1536 SPF)<br>
Compression mode : Lossy<br>
Stream size : 41.0 MiB (10%)<br>
Language : English<br>
Service kind : Complete Main<br>
Default : Yes<br>
Forced : No<br>
<br>
Text<br>
ID : 3<br>
Format : UTF-8<br>
Codec ID : S_TEXT/UTF8<br>
Codec ID/Info : UTF-8 Plain Text<br>
Duration : 25 min 1 s<br>
Bit rate : 38 b/s<br>
Frame rate : 0.229 FPS<br>
Count of elements : 344<br>
Stream size : 7.09 KiB (0%)<br>
Title : British (SDH)<br>
Language : English<br>
Default : No<br>
Forced : No<br>
<br>
Menu<br>
00:00:00.000 : en:Title Sequence<br>
00:00:34.000 : en:Christmas Shopping<br>
00:05:54.000 : en:Bean meets his girlfriend<br>
00:10:34.000 : en:Festivities in the air<br>
00:16:18.000 : en:It's the time to be jolly<br>
00:21:48.000 : en:A gift from Bean<br>
00:24:50.000 : en:End Credits<br>
<br>
<b><span style="text-decoration: underline">Episode 8: Mr. Bean in Room 426</span></b><br>
General<br>
Complete name : Mr.Bean.S01E08.Mr.Bean.in.Room.426.576p.AMZN.WEB-DL.DDP2.0.H.264-Samuel.mkv<br>
Format : Matroska<br>
Format version : Version 4<br>
File size : 450 MiB<br>
Duration : 24 min 48 s<br>
Overall bit rate : 2 536 kb/s<br>
Frame rate : 25.000 FPS<br>
Encoded date : 2024-01-13 10:15:24 UTC<br>
Writing application : mkvmerge v72.0.0 ('Minuano (Six-eight)') 64-bit<br>
Writing library : libebml v1.4.4 + libmatroska v1.7.1<br>
<br>
Video<br>
ID : 1<br>
Format : AVC<br>
Format/Info : Advanced Video Codec<br>
Format profile : Main@L3.1<br>
Format settings : CABAC / 5 Ref Frames<br>
Format settings, CABAC : Yes<br>
Format settings, Reference frames : 5 frames<br>
Codec ID : V_MPEG4/ISO/AVC<br>
Duration : 24 min 48 s<br>
Bit rate : 2 310 kb/s<br>
Width : 720 pixels<br>
Height : 576 pixels<br>
Display aspect ratio : 4:3<br>
Frame rate mode : Constant<br>
Frame rate : 25.000 FPS<br>
Standard : PAL<br>
Color space : YUV<br>
Chroma subsampling : 4:2:0<br>
Bit depth : 8 bits<br>
Scan type : Progressive<br>
Bits/(Pixel*Frame) : 0.223<br>
Stream size : 410 MiB (91%)<br>
Default : Yes<br>
Forced : No<br>
Color range : Limited<br>
Color primaries : BT.709<br>
Transfer characteristics : BT.709<br>
Matrix coefficients : BT.709<br>
<br>
Audio<br>
ID : 2<br>
Format : E-AC-3<br>
Format/Info : Enhanced AC-3<br>
Commercial name : Dolby Digital Plus<br>
Codec ID : A_EAC3<br>
Duration : 24 min 48 s<br>
Bit rate mode : Constant<br>
Bit rate : 224 kb/s<br>
Channel(s) : 2 channels<br>
Channel layout : L R<br>
Sampling rate : 48.0 kHz<br>
Frame rate : 31.250 FPS (1536 SPF)<br>
Compression mode : Lossy<br>
Stream size : 39.7 MiB (9%)<br>
Language : English<br>
Service kind : Complete Main<br>
Default : Yes<br>
Forced : No<br>
<br>
Text<br>
ID : 3<br>
Format : UTF-8<br>
Codec ID : S_TEXT/UTF8<br>
Codec ID/Info : UTF-8 Plain Text<br>
Duration : 23 min 40 s<br>
Bit rate : 13 b/s<br>
Frame rate : 0.081 FPS<br>
Count of elements : 115<br>
Stream size : 2.27 KiB (0%)<br>
Title : British (SDH)<br>
Language : English<br>
Default : No<br>
Forced : No<br>
<br>
Menu<br>
00:00:00.000 : en:Title Sequence<br>
00:00:34.000 : en:Arriving in the grand hotel<br>
00:04:19.000 : en:Bean makes himself comfortable<br>
00:11:48.000 : en:Strange noises in the hotel<br>
00:13:18.000 : en:Bean is not happy<br>
00:20:07.000 : en:Bean and his big blunder<br>
00:23:40.000 : en:End Credits<br>
<br>
<b><span style="text-decoration: underline">Episode 9: Mind The Baby, Mr. Bean</span></b><br>
General<br>
Complete name : Mr.Bean.S01E09.Mind.The.Baby.Mr.Bean.576p.AMZN.WEB-DL.DDP2.0.H.264-Samuel.mkv<br>
Format : Matroska<br>
Format version : Version 4<br>
File size : 526 MiB<br>
Duration : 24 min 31 s<br>
Overall bit rate : 2 998 kb/s<br>
Frame rate : 25.000 FPS<br>
Encoded date : 2024-01-13 10:16:34 UTC<br>
Writing application : mkvmerge v72.0.0 ('Minuano (Six-eight)') 64-bit<br>
Writing library : libebml v1.4.4 + libmatroska v1.7.1<br>
<br>
Video<br>
ID : 1<br>
Format : AVC<br>
Format/Info : Advanced Video Codec<br>
Format profile : Main@L3.1<br>
Format settings : CABAC / 5 Ref Frames<br>
Format settings, CABAC : Yes<br>
Format settings, Reference frames : 5 frames<br>
Codec ID : V_MPEG4/ISO/AVC<br>
Duration : 24 min 31 s<br>
Bit rate : 2 772 kb/s<br>
Width : 720 pixels<br>
Height : 576 pixels<br>
Display aspect ratio : 4:3<br>
Frame rate mode : Constant<br>
Frame rate : 25.000 FPS<br>
Standard : PAL<br>
Color space : YUV<br>
Chroma subsampling : 4:2:0<br>
Bit depth : 8 bits<br>
Scan type : Progressive<br>
Bits/(Pixel*Frame) : 0.267<br>
Stream size : 486 MiB (92%)<br>
Default : Yes<br>
Forced : No<br>
Color range : Limited<br>
Color primaries : BT.709<br>
Transfer characteristics : BT.709<br>
Matrix coefficients : BT.709<br>
<br>
Audio<br>
ID : 2<br>
Format : E-AC-3<br>
Format/Info : Enhanced AC-3<br>
Commercial name : Dolby Digital Plus<br>
Codec ID : A_EAC3<br>
Duration : 24 min 31 s<br>
Bit rate mode : Constant<br>
Bit rate : 224 kb/s<br>
Channel(s) : 2 channels<br>
Channel layout : L R<br>
Sampling rate : 48.0 kHz<br>
Frame rate : 31.250 FPS (1536 SPF)<br>
Compression mode : Lossy<br>
Stream size : 39.3 MiB (7%)<br>
Language : English<br>
Service kind : Complete Main<br>
Default : Yes<br>
Forced : No<br>
<br>
Text<br>
ID : 3<br>
Format : UTF-8<br>
Codec ID : S_TEXT/UTF8<br>
Codec ID/Info : UTF-8 Plain Text<br>
Duration : 23 min 41 s<br>
Bit rate : 23 b/s<br>
Frame rate : 0.201 FPS<br>
Count of elements : 286<br>
Stream size : 4.04 KiB (0%)<br>
Title : British (SDH)<br>
Language : English<br>
Default : No<br>
Forced : No<br>
<br>
Menu<br>
00:00:00.000 : en:Title Sequence<br>
00:00:36.000 : en:Bean deals with a baby<br>
00:13:33.000 : en:Baby needs a new diaper<br>
00:16:19.000 : en:Baby, don't cry<br>
00:23:26.000 : en:End Credits<br>
<br>
<b><span style="text-decoration: underline">Episode 10: Do It Yourself Mr. Bean</span></b><br>
General<br>
Complete name : Mr.Bean.S01E10.Do.It.Yourself.Mr.Bean.576p.AMZN.WEB-DL.DDP2.0.H.264-Samuel.mkv<br>
Format : Matroska<br>
Format version : Version 4<br>
File size : 410 MiB<br>
Duration : 25 min 2 s<br>
Overall bit rate : 2 293 kb/s<br>
Frame rate : 25.000 FPS<br>
Encoded date : 2024-01-13 10:17:43 UTC<br>
Writing application : mkvmerge v72.0.0 ('Minuano (Six-eight)') 64-bit<br>
Writing library : libebml v1.4.4 + libmatroska v1.7.1<br>
<br>
Video<br>
ID : 1<br>
Format : AVC<br>
Format/Info : Advanced Video Codec<br>
Format profile : Main@L3.1<br>
Format settings : CABAC / 5 Ref Frames<br>
Format settings, CABAC : Yes<br>
Format settings, Reference frames : 5 frames<br>
Codec ID : V_MPEG4/ISO/AVC<br>
Duration : 25 min 2 s<br>
Bit rate : 2 067 kb/s<br>
Width : 720 pixels<br>
Height : 576 pixels<br>
Display aspect ratio : 4:3<br>
Frame rate mode : Constant<br>
Frame rate : 25.000 FPS<br>
Standard : PAL<br>
Color space : YUV<br>
Chroma subsampling : 4:2:0<br>
Bit depth : 8 bits<br>
Scan type : Progressive<br>
Bits/(Pixel*Frame) : 0.199<br>
Stream size : 370 MiB (90%)<br>
Default : Yes<br>
Forced : No<br>
Color range : Limited<br>
Color primaries : BT.709<br>
Transfer characteristics : BT.709<br>
Matrix coefficients : BT.709<br>
<br>
Audio<br>
ID : 2<br>
Format : E-AC-3<br>
Format/Info : Enhanced AC-3<br>
Commercial name : Dolby Digital Plus<br>
Codec ID : A_EAC3<br>
Duration : 25 min 2 s<br>
Bit rate mode : Constant<br>
Bit rate : 224 kb/s<br>
Channel(s) : 2 channels<br>
Channel layout : L R<br>
Sampling rate : 48.0 kHz<br>
Frame rate : 31.250 FPS (1536 SPF)<br>
Compression mode : Lossy<br>
Stream size : 40.1 MiB (10%)<br>
Language : English<br>
Service kind : Complete Main<br>
Default : Yes<br>
Forced : No<br>
<br>
Text<br>
ID : 3<br>
Format : UTF-8<br>
Codec ID : S_TEXT/UTF8<br>
Codec ID/Info : UTF-8 Plain Text<br>
Duration : 24 min 14 s<br>
Bit rate : 30 b/s<br>
Frame rate : 0.186 FPS<br>
Count of elements : 270<br>
Stream size : 5.36 KiB (0%)<br>
Title : British (SDH)<br>
Language : English<br>
Default : No<br>
Forced : No<br>
<br>
Menu<br>
00:00:00.000 : en:Title Sequence<br>
00:00:35.000 : en:Bean and holiday party<br>
00:07:50.000 : en:Hubert is looking for better options<br>
00:09:17.000 : en:Bean goes holiday shopping<br>
00:13:41.000 : en:Renovation in progress<br>
00:23:50.000 : en:End Credits<br>
<br>
<b><span style="text-decoration: underline">Episode 11: Back To School Mr. Bean</span></b><br>
General<br>
Complete name : Mr.Bean.S01E11.Back.To.School.Mr.Bean.576p.AMZN.WEB-DL.DDP2.0.H.264-Samuel.mkv<br>
Format : Matroska<br>
Format version : Version 4<br>
File size : 376 MiB<br>
Duration : 24 min 32 s<br>
Overall bit rate : 2 144 kb/s<br>
Frame rate : 25.000 FPS<br>
Encoded date : 2024-01-13 10:18:46 UTC<br>
Writing application : mkvmerge v72.0.0 ('Minuano (Six-eight)') 64-bit<br>
Writing library : libebml v1.4.4 + libmatroska v1.7.1<br>
<br>
Video<br>
ID : 1<br>
Format : AVC<br>
Format/Info : Advanced Video Codec<br>
Format profile : Main@L3.1<br>
Format settings : CABAC / 5 Ref Frames<br>
Format settings, CABAC : Yes<br>
Format settings, Reference frames : 5 frames<br>
Codec ID : V_MPEG4/ISO/AVC<br>
Duration : 24 min 32 s<br>
Bit rate : 1 918 kb/s<br>
Width : 720 pixels<br>
Height : 576 pixels<br>
Display aspect ratio : 4:3<br>
Frame rate mode : Constant<br>
Frame rate : 25.000 FPS<br>
Standard : PAL<br>
Color space : YUV<br>
Chroma subsampling : 4:2:0<br>
Bit depth : 8 bits<br>
Scan type : Progressive<br>
Bits/(Pixel*Frame) : 0.185<br>
Stream size : 337 MiB (89%)<br>
Default : Yes<br>
Forced : No<br>
Color range : Limited<br>
Color primaries : BT.709<br>
Transfer characteristics : BT.709<br>
Matrix coefficients : BT.709<br>
<br>
Audio<br>
ID : 2<br>
Format : E-AC-3<br>
Format/Info : Enhanced AC-3<br>
Commercial name : Dolby Digital Plus<br>
Codec ID : A_EAC3<br>
Duration : 24 min 32 s<br>
Bit rate mode : Constant<br>
Bit rate : 224 kb/s<br>
Channel(s) : 2 channels<br>
Channel layout : L R<br>
Sampling rate : 48.0 kHz<br>
Frame rate : 31.250 FPS (1536 SPF)<br>
Compression mode : Lossy<br>
Stream size : 39.3 MiB (10%)<br>
Language : English<br>
Service kind : Complete Main<br>
Default : Yes<br>
Forced : No<br>
<br>
Text<br>
ID : 3<br>
Format : UTF-8<br>
Codec ID : S_TEXT/UTF8<br>
Codec ID/Info : UTF-8 Plain Text<br>
Duration : 24 min 24 s<br>
Bit rate : 39 b/s<br>
Frame rate : 0.191 FPS<br>
Count of elements : 280<br>
Stream size : 7.09 KiB (0%)<br>
Title : British (SDH)<br>
Language : English<br>
Default : No<br>
Forced : No<br>
<br>
Menu<br>
00:00:00.000 : en:Title Sequence<br>
00:00:34.000 : en:Back to school<br>
00:04:30.000 : en:Bean wanders in the hallway and tease people<br>
00:07:53.000 : en:Bean takes art classes<br>
00:15:54.000 : en:Teaching the teacher lesson of karate<br>
00:21:48.000 : en:Reason you should not take other's parking space<br>
00:23:16.000 : en:End Credits<br>
<br>
<b><span style="text-decoration: underline">Episode 12: Tee Off, Mr. Bean</span></b><br>
General<br>
Complete name : Mr.Bean.S01E12.Tee.Off.Mr.Bean.576p.AMZN.WEB-DL.DDP2.0.H.264-Samuel.mkv<br>
Format : Matroska<br>
Format version : Version 4<br>
File size : 476 MiB<br>
Duration : 25 min 5 s<br>
Overall bit rate : 2 652 kb/s<br>
Frame rate : 25.000 FPS<br>
Encoded date : 2024-01-13 10:19:58 UTC<br>
Writing application : mkvmerge v72.0.0 ('Minuano (Six-eight)') 64-bit<br>
Writing library : libebml v1.4.4 + libmatroska v1.7.1<br>
<br>
Video<br>
ID : 1<br>
Format : AVC<br>
Format/Info : Advanced Video Codec<br>
Format profile : Main@L3.1<br>
Format settings : CABAC / 5 Ref Frames<br>
Format settings, CABAC : Yes<br>
Format settings, Reference frames : 5 frames<br>
Codec ID : V_MPEG4/ISO/AVC<br>
Duration : 25 min 5 s<br>
Bit rate : 2 426 kb/s<br>
Width : 720 pixels<br>
Height : 576 pixels<br>
Display aspect ratio : 4:3<br>
Frame rate mode : Constant<br>
Frame rate : 25.000 FPS<br>
Standard : PAL<br>
Color space : YUV<br>
Chroma subsampling : 4:2:0<br>
Bit depth : 8 bits<br>
Scan type : Progressive<br>
Bits/(Pixel*Frame) : 0.234<br>
Stream size : 435 MiB (91%)<br>
Default : Yes<br>
Forced : No<br>
Color range : Limited<br>
Color primaries : BT.709<br>
Transfer characteristics : BT.709<br>
Matrix coefficients : BT.709<br>
<br>
Audio<br>
ID : 2<br>
Format : E-AC-3<br>
Format/Info : Enhanced AC-3<br>
Commercial name : Dolby Digital Plus<br>
Codec ID : A_EAC3<br>
Duration : 25 min 5 s<br>
Bit rate mode : Constant<br>
Bit rate : 224 kb/s<br>
Channel(s) : 2 channels<br>
Channel layout : L R<br>
Sampling rate : 48.0 kHz<br>
Frame rate : 31.250 FPS (1536 SPF)<br>
Compression mode : Lossy<br>
Stream size : 40.2 MiB (8%)<br>
Language : English<br>
Service kind : Complete Main<br>
Default : Yes<br>
Forced : No<br>
<br>
Text<br>
ID : 3<br>
Format : UTF-8<br>
Codec ID : S_TEXT/UTF8<br>
Codec ID/Info : UTF-8 Plain Text<br>
Duration : 24 min 42 s<br>
Bit rate : 10 b/s<br>
Frame rate : 0.071 FPS<br>
Count of elements : 105<br>
Stream size : 1.89 KiB (0%)<br>
Title : British (SDH)<br>
Language : English<br>
Default : No<br>
Forced : No<br>
<br>
Menu<br>
00:00:00.000 : en:Title Sequence<br>
00:00:34.000 : en:Bean does his laundry<br>
00:11:09.000 : en:Mr. Bean and his revenge<br>
00:13:43.000 : en:Bean has some serious golf aspirations<br>
00:23:58.000 : en:End Credits<br>
<br>
<b><span style="text-decoration: underline">Episode 13: Goodnight Mr. Bean</span></b><br>
General<br>
Complete name : Mr.Bean.S01E13.Goodnight.Mr.Bean.576p.AMZN.WEB-DL.DDP2.0.H.264-Samuel.mkv<br>
Format : Matroska<br>
Format version : Version 4<br>
File size : 390 MiB<br>
Duration : 24 min 8 s<br>
Overall bit rate : 2 262 kb/s<br>
Frame rate : 25.000 FPS<br>
Encoded date : 2024-01-13 10:20:59 UTC<br>
Writing application : mkvmerge v72.0.0 ('Minuano (Six-eight)') 64-bit<br>
Writing library : libebml v1.4.4 + libmatroska v1.7.1<br>
<br>
Video<br>
ID : 1<br>
Format : AVC<br>
Format/Info : Advanced Video Codec<br>
Format profile : Main@L3.1<br>
Format settings : CABAC / 5 Ref Frames<br>
Format settings, CABAC : Yes<br>
Format settings, Reference frames : 5 frames<br>
Codec ID : V_MPEG4/ISO/AVC<br>
Duration : 24 min 8 s<br>
Bit rate : 2 036 kb/s<br>
Width : 720 pixels<br>
Height : 576 pixels<br>
Display aspect ratio : 4:3<br>
Frame rate mode : Constant<br>
Frame rate : 25.000 FPS<br>
Standard : PAL<br>
Color space : YUV<br>
Chroma subsampling : 4:2:0<br>
Bit depth : 8 bits<br>
Scan type : Progressive<br>
Bits/(Pixel*Frame) : 0.196<br>
Stream size : 351 MiB (90%)<br>
Default : Yes<br>
Forced : No<br>
Color range : Limited<br>
Color primaries : BT.709<br>
Transfer characteristics : BT.709<br>
Matrix coefficients : BT.709<br>
<br>
Audio<br>
ID : 2<br>
Format : E-AC-3<br>
Format/Info : Enhanced AC-3<br>
Commercial name : Dolby Digital Plus<br>
Codec ID : A_EAC3<br>
Duration : 24 min 8 s<br>
Bit rate mode : Constant<br>
Bit rate : 224 kb/s<br>
Channel(s) : 2 channels<br>
Channel layout : L R<br>
Sampling rate : 48.0 kHz<br>
Frame rate : 31.250 FPS (1536 SPF)<br>
Compression mode : Lossy<br>
Stream size : 38.7 MiB (10%)<br>
Language : English<br>
Service kind : Complete Main<br>
Default : Yes<br>
Forced : No<br>
<br>
Text<br>
ID : 3<br>
Format : UTF-8<br>
Codec ID : S_TEXT/UTF8<br>
Codec ID/Info : UTF-8 Plain Text<br>
Duration : 23 min 2 s<br>
Bit rate : 13 b/s<br>
Frame rate : 0.087 FPS<br>
Count of elements : 120<br>
Stream size : 2.27 KiB (0%)<br>
Title : British (SDH)<br>
Language : English<br>
Default : No<br>
Forced : No<br>
<br>
Menu<br>
00:00:00.000 : en:Title Sequence<br>
00:00:32.000 : en:Bean and his emergency<br>
00:06:46.000 : en:There are no shortcuts to success<br>
00:08:46.000 : en:A picture with the guardsman<br>
00:15:23.000 : en:Scene 5<br>
00:23:04.000 : en:End Credits<br>
<br>
<b><span style="text-decoration: underline">Episode 14: Hair by Mr. Bean of London</span></b><br>
General<br>
Complete name : Mr.Bean.S01E14.Hair.by.Mr.Bean.of.London.576p.AMZN.WEB-DL.DDP2.0.H.264-Samuel.mkv<br>
Format : Matroska<br>
Format version : Version 4<br>
File size : 441 MiB<br>
Duration : 26 min 20 s<br>
Overall bit rate : 2 341 kb/s<br>
Frame rate : 25.000 FPS<br>
Encoded date : 2024-01-13 10:22:25 UTC<br>
Writing application : mkvmerge v72.0.0 ('Minuano (Six-eight)') 64-bit<br>
Writing library : libebml v1.4.4 + libmatroska v1.7.1<br>
<br>
Video<br>
ID : 1<br>
Format : AVC<br>
Format/Info : Advanced Video Codec<br>
Format profile : Main@L3.1<br>
Format settings : CABAC / 5 Ref Frames<br>
Format settings, CABAC : Yes<br>
Format settings, Reference frames : 5 frames<br>
Codec ID : V_MPEG4/ISO/AVC<br>
Duration : 26 min 20 s<br>
Bit rate : 2 116 kb/s<br>
Width : 720 pixels<br>
Height : 576 pixels<br>
Display aspect ratio : 4:3<br>
Frame rate mode : Constant<br>
Frame rate : 25.000 FPS<br>
Standard : PAL<br>
Color space : YUV<br>
Chroma subsampling : 4:2:0<br>
Bit depth : 8 bits<br>
Scan type : Progressive<br>
Bits/(Pixel*Frame) : 0.204<br>
Stream size : 398 MiB (90%)<br>
Default : Yes<br>
Forced : No<br>
Color range : Limited<br>
Color primaries : BT.709<br>
Transfer characteristics : BT.709<br>
Matrix coefficients : BT.709<br>
<br>
Audio<br>
ID : 2<br>
Format : E-AC-3<br>
Format/Info : Enhanced AC-3<br>
Commercial name : Dolby Digital Plus<br>
Codec ID : A_EAC3<br>
Duration : 26 min 20 s<br>
Bit rate mode : Constant<br>
Bit rate : 224 kb/s<br>
Channel(s) : 2 channels<br>
Channel layout : L R<br>
Sampling rate : 48.0 kHz<br>
Frame rate : 31.250 FPS (1536 SPF)<br>
Compression mode : Lossy<br>
Stream size : 42.2 MiB (10%)<br>
Language : English<br>
Service kind : Complete Main<br>
Default : Yes<br>
Forced : No<br>
<br>
Text<br>
ID : 3<br>
Format : UTF-8<br>
Codec ID : S_TEXT/UTF8<br>
Codec ID/Info : UTF-8 Plain Text<br>
Duration : 25 min 22 s<br>
Bit rate : 21 b/s<br>
Frame rate : 0.158 FPS<br>
Count of elements : 240<br>
Stream size : 3.99 KiB (0%)<br>
Title : British (SDH)<br>
Language : English<br>
Default : No<br>
Forced : No<br>
<br>
Menu<br>
00:00:00.000 : en:Title Sequence<br>
00:00:35.000 : en:Bean has a new profession<br>
00:10:47.000 : en:Bean visits the school fair<br>
00:15:17.000 : en<img src="styles/default/xenforo/smilies/grimace-48.png" class="mceSmilie" alt=":p" title="Stick Out Tongue    :p">et show participation<br>
00:20:50.000 : en:Bean and his tricks to save money<br>
00:25:23.000 : en:End Credits</div>
</div><br>
<b>Screenshots</b><br>
<img src="https://i.imgur.com/SKTB18v.jpg" class="bbCodeImage LbImage" alt="[​IMG]" data-url="https://i.imgur.com/SKTB18v.jpg" style=""><br>
<b><a href="https://imgur.com/a/WEgOejT" target="_blank" class="externalLink" rel="nofollow">More Episodes Screenshots</a></b><br>
<br>
<b>Download</b><br>
<div class="bbCodeBlock bbCodeVfcHH HiddenContent">
<div class="attribution type">Hidden Content:</div>
<blockquote>You must reply before you can see the hidden data contained here.</blockquote>
</div></div>
<div class="messageTextEndMarker">&nbsp;</div>
</blockquote>
</article>]]></description>
                <author><![CDATA[Samuel]]></author>
                </item>

                </channel></rss>